M48
; DRILL file {KiCad 9.0.7} date 2026-03-09T06:49:21+0530
; FORMAT={-:-/ absolute / metric / decimal}
; #@! TF.CreationDate,2026-03-09T06:49:21+05:30
; #@! TF.GenerationSoftware,Kicad,Pcbnew,9.0.7
; #@! TF.FileFunction,Plated,1,2,PTH
FMAT,2
METRIC
; #@! TA.AperFunction,Plated,PTH,ViaDrill
T1C0.500
; #@! TA.AperFunction,Plated,PTH,ComponentDrill
T2C1.300
%
G90
G05
T1
X156.225Y-99.8
X156.5Y-93.1
X156.5Y-96.0
X156.5Y-97.7
X156.6Y-90.9
X156.625Y-87.7
X158.35Y-99.8
X158.75Y-87.7
X159.9Y-98.5
X160.2Y-90.3
X160.475Y-99.8
X160.875Y-87.7
X161.4Y-90.3
X161.6Y-98.5
X162.6Y-99.8
X163.0Y-87.7
X164.725Y-99.8
X165.125Y-87.7
X166.825Y-83.1
X166.825Y-104.3
X168.4Y-87.9
X168.5Y-86.1
X168.6Y-100.7
X168.7Y-98.2
X168.95Y-83.1
X168.95Y-104.3
X171.075Y-83.1
X171.075Y-104.3
X171.1Y-98.2
X173.2Y-83.1
X173.2Y-104.3
X173.3Y-98.2
X173.4Y-100.7
X173.5Y-86.2
X173.6Y-88.1
X175.325Y-83.1
X175.325Y-104.3
X177.9Y-98.7
X178.5Y-87.3
X178.5Y-88.8
X178.9Y-98.7
X178.9Y-100.0
X179.9Y-87.3
X179.9Y-88.8
X180.1Y-98.7
X180.1Y-100.1
X181.1Y-87.3
X181.1Y-88.9
X194.025Y-84.8
X196.15Y-84.8
X198.275Y-84.8
X200.4Y-84.8
X202.525Y-84.8
X205.5Y-85.3
X205.55Y-87.0
X205.7Y-101.9
X205.7Y-104.5
X205.85Y-91.2
X207.625Y-85.3
X207.675Y-87.0
X207.7Y-89.1
X207.825Y-101.9
X207.825Y-104.5
X207.975Y-91.2
X209.75Y-85.3
X209.8Y-87.0
X209.95Y-101.9
X209.95Y-104.5
X210.1Y-91.2
X211.875Y-85.3
X211.925Y-87.0
X212.075Y-101.9
X212.075Y-104.5
X212.225Y-91.2
X213.2Y-88.8
X214.0Y-85.3
X214.05Y-87.0
X214.2Y-101.9
X214.2Y-104.5
X214.35Y-91.2
T2
X210.067Y-89.065
X210.067Y-94.145
M30
